<svg width="40" height="40" viewBox="0 0 40 40" fill="none" xmlns="http://www.w3.org/2000/svg">
<circle cx="20" cy="20" r="20" fill="#EB5091" fill-opacity="0.1"/>
<path fill-rule="evenodd" clip-rule="evenodd" d="M20 12C15.6 12 12 15.6 12 20C12 24.4 15.6 28 20 28C24.4 28 28 24.4 28 20C28 15.6 24.4 12 20 12ZM22.2 19.4C22.2 19.4 22 18.8 21.9 18.6C23.6 17.8 24.7 16.9 25.1 16.4C25.8 17.3 26.2 18.4 26.3 19.6C25.5 19.4 23.7 19.1 22.2 19.4ZM21.1 17.1C20.3 15.7 19.4 14.5 19 13.8C20.9 13.3 22.6 13.9 23.9 15.1C23.5 15.6 22.7 16.4 21.1 17.1ZM17.1 14.5C17.5 15 18.3 16.2 19.1 17.7C16.9 18.2 14.9 18.3 14 18.3C14.4 16.7 15.6 15.3 17.1 14.5ZM20 19.3C20.1 19.5 20.2 19.7 20.3 19.8C17.5 20.7 15.7 23 15.1 23.9C14.3 22.8 13.8 21.5 13.8 20.2C14.7 20.1 17.3 20 20 19.3ZM21 21.5C21.7 23.5 22.1 25.1 22.2 25.9C20.1 26.6 17.7 26.2 16.4 25.1C16.8 24.4 18.1 22.6 21 21.5ZM23.9 24.9C23.7 24.1 23.4 22.7 22.8 21C23.9 20.8 25.5 21 26.1 21.2C25.8 22.7 25 24 23.9 24.9Z" fill="#EB5091"/>
</svg>
